<svg width="57" height="76" viewBox="0 0 57 76" fill="none" xmlns="http://www.w3.org/2000/svg">
    <path d="M61.6275 44.3942C62.0572 44.9561 62.4661 45.5299 62.8537 46.1142C67.7647 44.698 72.1064 41.7584 75.5685 37.9673C67.156 28.1594 51.9545 25.8078 41.142 32.8859C40.8862 33.052 40.6336 33.2235 40.3833 33.4018V33.403C40.3774 33.4073 40.3711 33.4116 40.3652 33.416C40.366 33.4124 40.3664 33.4093 40.3672 33.4057L40.3679 33.4049C40.6867 31.7577 41.1971 30.171 41.8731 28.6686C41.8731 28.6686 41.8731 28.6686 41.8743 28.6678C45.1637 21.3583 52.3823 16.0404 60.5312 15.3966C60.2171 19.0173 59.0295 22.5172 57.0687 25.5768C57.7864 25.622 58.5069 25.6925 59.2279 25.7889C59.9291 25.8821 60.6237 25.999 61.3111 26.1379C63.7824 21.6641 64.7736 16.5153 64.5411 11.3863C51.657 10.3997 39.2452 19.486 36.6044 32.1366C36.5414 32.4349 36.484 32.7352 36.4332 33.0382L36.434 33.039C36.4336 33.0413 36.4332 33.0441 36.4328 33.0464C36.4324 33.0461 36.432 33.0457 36.4316 33.0449V33.0437C35.4923 31.6538 34.7313 30.171 34.1469 28.6304C34.1469 28.6304 34.1469 28.6304 34.1469 28.6289C31.3041 21.1344 32.6484 12.2697 37.9553 6.0526C40.2936 8.83474 41.9286 12.1493 42.7054 15.6992C43.2449 15.2238 43.8045 14.7638 44.3822 14.3227C44.9441 13.893 45.5178 13.4841 46.1022 13.0965C44.686 8.18505 41.7464 3.8438 37.9553 0.381271C28.1474 8.7942 25.7957 23.9956 32.8739 34.8082C33.0399 35.0636 33.2115 35.3166 33.3898 35.5669H33.3909C33.3961 35.574 33.4012 35.5811 33.4063 35.5882C31.7701 35.2572 30.1858 34.7389 28.681 34.0542C21.4207 30.7491 15.9961 23.6092 15.3873 15.3974C19.0029 15.7094 22.4989 16.9065 25.5427 18.8442C25.6269 17.4129 25.8123 15.9994 26.0964 14.6092C21.6398 12.2072 16.5065 11.1124 11.3766 11.3863C10.5251 24.741 19.4826 36.4795 32.0046 39.2954C32.3544 39.3741 32.7074 39.4434 33.0628 39.5079C31.674 40.4288 30.1901 41.1808 28.6444 41.7596C21.1735 44.5563 12.2892 43.3435 6.05199 37.9673C8.82941 35.6314 12.1475 34.0058 15.6702 33.2235C14.7179 32.152 13.8491 31.0214 13.0672 29.8373C8.2175 31.2902 3.81329 34.1459 0.379883 37.9673C9.22095 48.0122 23.8549 49.9786 34.7006 43.1157C34.9949 42.9295 35.2853 42.7344 35.5738 42.5352C35.2428 44.1671 34.7253 45.7475 34.0422 47.2487C30.7371 54.5091 23.5972 59.9337 15.3853 60.542C15.6974 56.9268 16.8945 53.4308 18.8321 50.387C17.4009 50.3024 15.9874 50.1175 14.5971 49.833C12.1951 54.2895 11.1004 59.4233 11.3747 64.5531C24.7289 65.4043 36.4674 56.4467 39.2834 43.9251C39.3609 43.5804 39.4294 43.2326 39.4932 42.8831C40.4152 44.273 41.1683 45.7585 41.7476 47.3058C44.5443 54.7767 43.3315 63.661 37.9553 69.8978C35.6194 67.1208 33.9938 63.8027 33.2115 60.2799C32.14 61.2322 31.0094 62.1007 29.8253 62.883C31.2782 67.7327 34.1339 72.1369 37.9553 75.5703C48.0001 66.7292 49.9665 52.0949 43.1036 41.2496C42.9183 40.9565 42.7243 40.6676 42.526 40.3804C44.1724 40.6991 45.7587 41.2091 47.2607 41.8852C47.2607 41.8852 47.2607 41.8852 47.2619 41.8863C54.5714 45.1753 59.8894 52.3943 60.5331 60.5428C56.912 60.2288 53.4125 59.0416 50.3529 57.0803C50.3073 57.7985 50.2369 58.519 50.1408 59.2399C50.0472 59.9407 49.9303 60.6357 49.7914 61.3228C54.2657 63.7944 59.414 64.7857 64.543 64.5531C65.5296 51.6691 56.4434 39.2573 43.7927 36.6164C43.4976 36.5542 43.2005 36.4972 42.9006 36.4468C42.9022 36.4456 42.9037 36.4448 42.9049 36.4437H42.9065C44.2964 35.5043 45.7791 34.7433 47.3197 34.1589C47.3197 34.1589 47.3198 34.1589 47.3209 34.1589C54.8154 31.3162 63.6805 32.6604 69.8976 37.9673C67.1151 40.3056 63.8009 41.9402 60.2506 42.7174C60.7264 43.2569 61.186 43.8165 61.6275 44.3942Z" fill="white"/>
</svg>
