<svg width="818" height="240" viewBox="0 0 818 240" fill="none" xmlns="http://www.w3.org/2000/svg">
    <line x1="1.5" y1="11" x2="816.5" y2="11" stroke="#171F2F" stroke-linecap="round"/>
    <line x1="1.5" y1="53.5" x2="816.5" y2="53.5" stroke="#171F2F" stroke-linecap="round"/>
    <line x1="1.5" y1="93.5" x2="816.5" y2="93.5" stroke="#171F2F" stroke-linecap="round"/>
    <line x1="1.5" y1="133.5" x2="816.5" y2="133.5" stroke="#171F2F" stroke-linecap="round"/>
    <line x1="1.5" y1="173.5" x2="816.5" y2="173.5" stroke="#171F2F" stroke-linecap="round"/>
    <line x1="1.5" y1="213.5" x2="816.5" y2="213.5" stroke="#171F2F" stroke-linecap="round"/>
    <path d="M29.7493 226.273H30.8061V232.511C30.8061 233.068 30.7038 233.541 30.4993 233.93C30.2947 234.32 30.0064 234.615 29.6342 234.817C29.2621 235.018 28.8232 235.119 28.3175 235.119C27.8402 235.119 27.4155 235.033 27.0433 234.859C26.6712 234.683 26.3786 234.433 26.1655 234.109C25.9524 233.786 25.8459 233.401 25.8459 232.955H26.8857C26.8857 233.202 26.9467 233.418 27.0689 233.602C27.1939 233.784 27.3643 233.926 27.5803 234.028C27.7962 234.131 28.0419 234.182 28.3175 234.182C28.6214 234.182 28.88 234.118 29.093 233.99C29.3061 233.862 29.468 233.675 29.5788 233.428C29.6925 233.178 29.7493 232.872 29.7493 232.511V226.273ZM34.7138 235.153C34.299 235.153 33.9226 235.075 33.5845 234.919C33.2464 234.76 32.978 234.531 32.7791 234.233C32.5803 233.932 32.4808 233.568 32.4808 233.142C32.4808 232.767 32.5547 232.463 32.7024 232.23C32.8501 231.994 33.0476 231.81 33.2947 231.676C33.5419 231.543 33.8146 231.443 34.1129 231.378C34.4141 231.31 34.7166 231.256 35.0206 231.216C35.4183 231.165 35.7408 231.126 35.9879 231.101C36.2379 231.072 36.4197 231.026 36.5334 230.96C36.6499 230.895 36.7081 230.781 36.7081 230.619V230.585C36.7081 230.165 36.593 229.838 36.3629 229.605C36.1357 229.372 35.7905 229.256 35.3274 229.256C34.8473 229.256 34.4709 229.361 34.1982 229.571C33.9254 229.781 33.7337 230.006 33.6229 230.244L32.6683 229.903C32.8388 229.506 33.0661 229.196 33.3501 228.974C33.6371 228.75 33.9496 228.594 34.2876 228.506C34.6286 228.415 34.9638 228.369 35.2933 228.369C35.5036 228.369 35.745 228.395 36.0178 228.446C36.2933 228.494 36.5589 228.595 36.8146 228.749C37.0732 228.902 37.2876 229.134 37.4581 229.443C37.6286 229.753 37.7138 230.168 37.7138 230.688V235H36.7081V234.114H36.657C36.5888 234.256 36.4751 234.408 36.3161 234.57C36.157 234.732 35.9453 234.869 35.6811 234.983C35.4169 235.097 35.0945 235.153 34.7138 235.153ZM34.8672 234.25C35.2649 234.25 35.6001 234.172 35.8729 234.016C36.1484 233.859 36.3558 233.658 36.495 233.411C36.6371 233.163 36.7081 232.903 36.7081 232.631V231.71C36.6655 231.761 36.5717 231.808 36.4268 231.851C36.2848 231.891 36.12 231.926 35.9325 231.957C35.7479 231.986 35.5675 232.011 35.3913 232.034C35.218 232.054 35.0774 232.071 34.9695 232.085C34.7081 232.119 34.4638 232.175 34.2365 232.251C34.0121 232.325 33.8303 232.437 33.6911 232.588C33.5547 232.736 33.4865 232.937 33.4865 233.193C33.4865 233.543 33.6158 233.807 33.8743 233.986C34.1357 234.162 34.4666 234.25 34.8672 234.25ZM40.555 231.062V235H39.5494V228.455H40.521V229.477H40.6062C40.7596 229.145 40.9925 228.878 41.305 228.676C41.6175 228.472 42.021 228.369 42.5153 228.369C42.9585 228.369 43.3462 228.46 43.6786 228.642C44.011 228.821 44.2695 229.094 44.4542 229.46C44.6388 229.824 44.7312 230.284 44.7312 230.841V235H43.7255V230.909C43.7255 230.395 43.592 229.994 43.3249 229.707C43.0579 229.418 42.6914 229.273 42.2255 229.273C41.9045 229.273 41.6175 229.342 41.3647 229.482C41.1147 229.621 40.9173 229.824 40.7724 230.091C40.6275 230.358 40.555 230.682 40.555 231.062Z" fill="#667085"/>
    <path d="M93.4205 235V226.273H98.6534V227.21H94.4773V230.159H98.2614V231.097H94.4773V235H93.4205ZM102.591 235.136C101.96 235.136 101.416 234.997 100.959 234.719C100.504 234.438 100.153 234.045 99.9063 233.543C99.6619 233.037 99.5398 232.449 99.5398 231.778C99.5398 231.108 99.6619 230.517 99.9063 230.006C100.153 229.491 100.497 229.091 100.938 228.804C101.381 228.514 101.898 228.369 102.489 228.369C102.83 228.369 103.166 228.426 103.499 228.54C103.831 228.653 104.134 228.838 104.406 229.094C104.679 229.347 104.896 229.682 105.058 230.099C105.22 230.517 105.301 231.031 105.301 231.642V232.068H100.256V231.199H104.278C104.278 230.83 104.205 230.5 104.057 230.21C103.912 229.92 103.705 229.692 103.435 229.524C103.168 229.357 102.852 229.273 102.489 229.273C102.088 229.273 101.741 229.372 101.449 229.571C101.159 229.767 100.936 230.023 100.78 230.338C100.624 230.653 100.545 230.991 100.545 231.352V231.932C100.545 232.426 100.631 232.845 100.801 233.189C100.974 233.53 101.214 233.79 101.521 233.969C101.828 234.145 102.185 234.233 102.591 234.233C102.855 234.233 103.094 234.196 103.307 234.122C103.523 234.045 103.709 233.932 103.865 233.781C104.021 233.628 104.142 233.437 104.227 233.21L105.199 233.483C105.097 233.812 104.925 234.102 104.683 234.352C104.442 234.599 104.143 234.793 103.788 234.932C103.433 235.068 103.034 235.136 102.591 235.136ZM106.967 235V226.273H107.973V229.494H108.058C108.132 229.381 108.234 229.236 108.365 229.06C108.499 228.881 108.689 228.722 108.936 228.582C109.186 228.44 109.524 228.369 109.95 228.369C110.501 228.369 110.987 228.507 111.408 228.783C111.828 229.058 112.156 229.449 112.392 229.955C112.628 230.46 112.746 231.057 112.746 231.744C112.746 232.438 112.628 233.038 112.392 233.547C112.156 234.053 111.83 234.445 111.412 234.723C110.994 234.999 110.513 235.136 109.967 235.136C109.547 235.136 109.21 235.067 108.957 234.928C108.705 234.786 108.51 234.625 108.374 234.446C108.237 234.264 108.132 234.114 108.058 233.994H107.939V235H106.967ZM107.956 231.727C107.956 232.222 108.028 232.658 108.173 233.036C108.318 233.411 108.53 233.705 108.808 233.918C109.087 234.128 109.428 234.233 109.831 234.233C110.251 234.233 110.602 234.122 110.884 233.901C111.168 233.676 111.381 233.375 111.523 232.997C111.668 232.616 111.74 232.193 111.74 231.727C111.74 231.267 111.669 230.852 111.527 230.483C111.388 230.111 111.176 229.817 110.892 229.601C110.611 229.382 110.257 229.273 109.831 229.273C109.422 229.273 109.078 229.376 108.8 229.584C108.521 229.788 108.311 230.075 108.169 230.445C108.027 230.811 107.956 231.239 107.956 231.727Z" fill="#667085"/>
    <path d="M160.833 226.273H162.094L165.06 233.517H165.162L168.128 226.273H169.39V235H168.401V228.369H168.316L165.589 235H164.634L161.907 228.369H161.822V235H160.833V226.273ZM173.298 235.153C172.884 235.153 172.507 235.075 172.169 234.919C171.831 234.76 171.563 234.531 171.364 234.233C171.165 233.932 171.066 233.568 171.066 233.142C171.066 232.767 171.139 232.463 171.287 232.23C171.435 231.994 171.632 231.81 171.879 231.676C172.127 231.543 172.399 231.443 172.698 231.378C172.999 231.31 173.301 231.256 173.605 231.216C174.003 231.165 174.325 231.126 174.573 231.101C174.823 231.072 175.004 231.026 175.118 230.96C175.235 230.895 175.293 230.781 175.293 230.619V230.585C175.293 230.165 175.178 229.838 174.948 229.605C174.72 229.372 174.375 229.256 173.912 229.256C173.432 229.256 173.056 229.361 172.783 229.571C172.51 229.781 172.318 230.006 172.208 230.244L171.253 229.903C171.423 229.506 171.651 229.196 171.935 228.974C172.222 228.75 172.534 228.594 172.872 228.506C173.213 228.415 173.548 228.369 173.878 228.369C174.088 228.369 174.33 228.395 174.602 228.446C174.878 228.494 175.144 228.595 175.399 228.749C175.658 228.902 175.872 229.134 176.043 229.443C176.213 229.753 176.298 230.168 176.298 230.688V235H175.293V234.114H175.242C175.173 234.256 175.06 234.408 174.901 234.57C174.742 234.732 174.53 234.869 174.266 234.983C174.002 235.097 173.679 235.153 173.298 235.153ZM173.452 234.25C173.85 234.25 174.185 234.172 174.458 234.016C174.733 233.859 174.941 233.658 175.08 233.411C175.222 233.163 175.293 232.903 175.293 232.631V231.71C175.25 231.761 175.156 231.808 175.012 231.851C174.87 231.891 174.705 231.926 174.517 231.957C174.333 231.986 174.152 232.011 173.976 232.034C173.803 232.054 173.662 232.071 173.554 232.085C173.293 232.119 173.048 232.175 172.821 232.251C172.597 232.325 172.415 232.437 172.276 232.588C172.139 232.736 172.071 232.937 172.071 233.193C172.071 233.543 172.2 233.807 172.459 233.986C172.72 234.162 173.051 234.25 173.452 234.25ZM178.134 235V228.455H179.106V229.443H179.174C179.293 229.119 179.509 228.857 179.822 228.655C180.134 228.453 180.486 228.352 180.878 228.352C180.952 228.352 181.045 228.354 181.155 228.357C181.266 228.359 181.35 228.364 181.407 228.369V229.392C181.373 229.384 181.295 229.371 181.172 229.354C181.053 229.334 180.927 229.324 180.793 229.324C180.475 229.324 180.191 229.391 179.941 229.524C179.694 229.655 179.498 229.837 179.353 230.07C179.211 230.3 179.14 230.562 179.14 230.858V235H178.134Z" fill="#667085"/>
    <path d="M229.562 235H228.454L231.659 226.273H232.75L235.954 235H234.846L232.238 227.653H232.17L229.562 235ZM229.971 231.591H234.437V232.528H229.971V231.591ZM237.177 237.455V228.455H238.149V229.494H238.268C238.342 229.381 238.444 229.236 238.575 229.06C238.709 228.881 238.899 228.722 239.146 228.582C239.396 228.44 239.734 228.369 240.16 228.369C240.711 228.369 241.197 228.507 241.618 228.783C242.038 229.058 242.366 229.449 242.602 229.955C242.838 230.46 242.956 231.057 242.956 231.744C242.956 232.438 242.838 233.038 242.602 233.547C242.366 234.053 242.04 234.445 241.622 234.723C241.204 234.999 240.723 235.136 240.177 235.136C239.757 235.136 239.42 235.067 239.167 234.928C238.915 234.786 238.72 234.625 238.584 234.446C238.447 234.264 238.342 234.114 238.268 233.994H238.183V237.455H237.177ZM238.166 231.727C238.166 232.222 238.238 232.658 238.383 233.036C238.528 233.411 238.74 233.705 239.018 233.918C239.297 234.128 239.638 234.233 240.041 234.233C240.461 234.233 240.812 234.122 241.094 233.901C241.378 233.676 241.591 233.375 241.733 232.997C241.878 232.616 241.95 232.193 241.95 231.727C241.95 231.267 241.879 230.852 241.737 230.483C241.598 230.111 241.386 229.817 241.102 229.601C240.821 229.382 240.467 229.273 240.041 229.273C239.632 229.273 239.288 229.376 239.01 229.584C238.731 229.788 238.521 230.075 238.379 230.445C238.237 230.811 238.166 231.239 238.166 231.727ZM244.49 235V228.455H245.461V229.443H245.53C245.649 229.119 245.865 228.857 246.177 228.655C246.49 228.453 246.842 228.352 247.234 228.352C247.308 228.352 247.4 228.354 247.511 228.357C247.622 228.359 247.706 228.364 247.763 228.369V229.392C247.728 229.384 247.65 229.371 247.528 229.354C247.409 229.334 247.282 229.324 247.149 229.324C246.831 229.324 246.547 229.391 246.297 229.524C246.05 229.655 245.853 229.837 245.709 230.07C245.567 230.3 245.496 230.562 245.496 230.858V235H244.49Z" fill="#667085"/>
    <path d="M295.57 226.273H296.831L299.797 233.517H299.899L302.865 226.273H304.127V235H303.138V228.369H303.053L300.326 235H299.371L296.644 228.369H296.559V235H295.57V226.273ZM308.035 235.153C307.621 235.153 307.244 235.075 306.906 234.919C306.568 234.76 306.3 234.531 306.101 234.233C305.902 233.932 305.803 233.568 305.803 233.142C305.803 232.767 305.876 232.463 306.024 232.23C306.172 231.994 306.369 231.81 306.616 231.676C306.864 231.543 307.136 231.443 307.435 231.378C307.736 231.31 308.038 231.256 308.342 231.216C308.74 231.165 309.062 231.126 309.31 231.101C309.56 231.072 309.741 231.026 309.855 230.96C309.972 230.895 310.03 230.781 310.03 230.619V230.585C310.03 230.165 309.915 229.838 309.685 229.605C309.457 229.372 309.112 229.256 308.649 229.256C308.169 229.256 307.793 229.361 307.52 229.571C307.247 229.781 307.055 230.006 306.945 230.244L305.99 229.903C306.16 229.506 306.388 229.196 306.672 228.974C306.959 228.75 307.271 228.594 307.609 228.506C307.95 228.415 308.285 228.369 308.615 228.369C308.825 228.369 309.067 228.395 309.339 228.446C309.615 228.494 309.881 228.595 310.136 228.749C310.395 228.902 310.609 229.134 310.78 229.443C310.95 229.753 311.035 230.168 311.035 230.688V235H310.03V234.114H309.979C309.91 234.256 309.797 234.408 309.638 234.57C309.479 234.732 309.267 234.869 309.003 234.983C308.739 235.097 308.416 235.153 308.035 235.153ZM308.189 234.25C308.587 234.25 308.922 234.172 309.195 234.016C309.47 233.859 309.678 233.658 309.817 233.411C309.959 233.163 310.03 232.903 310.03 232.631V231.71C309.987 231.761 309.893 231.808 309.749 231.851C309.607 231.891 309.442 231.926 309.254 231.957C309.07 231.986 308.889 232.011 308.713 232.034C308.54 232.054 308.399 232.071 308.291 232.085C308.03 232.119 307.785 232.175 307.558 232.251C307.334 232.325 307.152 232.437 307.013 232.588C306.876 232.736 306.808 232.937 306.808 233.193C306.808 233.543 306.937 233.807 307.196 233.986C307.457 234.162 307.788 234.25 308.189 234.25ZM313.284 237.455C313.114 237.455 312.962 237.44 312.828 237.412C312.695 237.386 312.603 237.361 312.551 237.335L312.807 236.449C313.051 236.511 313.267 236.534 313.455 236.517C313.642 236.5 313.809 236.416 313.953 236.266C314.101 236.118 314.236 235.878 314.358 235.545L314.546 235.034L312.125 228.455H313.216L315.023 233.67H315.091L316.898 228.455H317.989L315.211 235.955C315.086 236.293 314.931 236.572 314.746 236.794C314.561 237.018 314.347 237.185 314.103 237.293C313.861 237.401 313.588 237.455 313.284 237.455Z" fill="#667085"/>
    <path d="M369.462 226.273H370.519V232.511C370.519 233.068 370.417 233.541 370.212 233.93C370.007 234.32 369.719 234.615 369.347 234.817C368.975 235.018 368.536 235.119 368.03 235.119C367.553 235.119 367.128 235.033 366.756 234.859C366.384 234.683 366.091 234.433 365.878 234.109C365.665 233.786 365.559 233.401 365.559 232.955H366.598C366.598 233.202 366.659 233.418 366.782 233.602C366.907 233.784 367.077 233.926 367.293 234.028C367.509 234.131 367.755 234.182 368.03 234.182C368.334 234.182 368.593 234.118 368.806 233.99C369.019 233.862 369.181 233.675 369.292 233.428C369.405 233.178 369.462 232.872 369.462 232.511V226.273ZM376.625 232.324V228.455H377.631V235H376.625V233.892H376.557C376.404 234.224 376.165 234.507 375.841 234.74C375.517 234.97 375.108 235.085 374.614 235.085C374.205 235.085 373.841 234.996 373.523 234.817C373.205 234.635 372.955 234.362 372.773 233.999C372.591 233.632 372.5 233.17 372.5 232.614V228.455H373.506V232.545C373.506 233.023 373.64 233.403 373.907 233.688C374.176 233.972 374.52 234.114 374.938 234.114C375.188 234.114 375.442 234.05 375.701 233.922C375.962 233.794 376.181 233.598 376.357 233.334C376.536 233.07 376.625 232.733 376.625 232.324ZM380.479 231.062V235H379.473V228.455H380.445V229.477H380.53C380.683 229.145 380.916 228.878 381.229 228.676C381.541 228.472 381.945 228.369 382.439 228.369C382.882 228.369 383.27 228.46 383.602 228.642C383.935 228.821 384.193 229.094 384.378 229.46C384.562 229.824 384.655 230.284 384.655 230.841V235H383.649V230.909C383.649 230.395 383.516 229.994 383.249 229.707C382.982 229.418 382.615 229.273 382.149 229.273C381.828 229.273 381.541 229.342 381.288 229.482C381.038 229.621 380.841 229.824 380.696 230.091C380.551 230.358 380.479 230.682 380.479 231.062Z" fill="#667085"/>
    <path d="M436.912 226.273H437.968V232.511C437.968 233.068 437.866 233.541 437.662 233.93C437.457 234.32 437.169 234.615 436.797 234.817C436.424 235.018 435.985 235.119 435.48 235.119C435.002 235.119 434.578 235.033 434.206 234.859C433.833 234.683 433.541 234.433 433.328 234.109C433.115 233.786 433.008 233.401 433.008 232.955H434.048C434.048 233.202 434.109 233.418 434.231 233.602C434.356 233.784 434.527 233.926 434.743 234.028C434.958 234.131 435.204 234.182 435.48 234.182C435.784 234.182 436.042 234.118 436.255 233.99C436.468 233.862 436.63 233.675 436.741 233.428C436.855 233.178 436.912 232.872 436.912 232.511V226.273ZM444.075 232.324V228.455H445.081V235H444.075V233.892H444.007C443.853 234.224 443.615 234.507 443.291 234.74C442.967 234.97 442.558 235.085 442.064 235.085C441.654 235.085 441.291 234.996 440.973 234.817C440.654 234.635 440.404 234.362 440.223 233.999C440.041 233.632 439.95 233.17 439.95 232.614V228.455H440.956V232.545C440.956 233.023 441.089 233.403 441.356 233.688C441.626 233.972 441.97 234.114 442.387 234.114C442.637 234.114 442.892 234.05 443.15 233.922C443.412 233.794 443.63 233.598 443.806 233.334C443.985 233.07 444.075 232.733 444.075 232.324ZM447.928 226.273V235H446.923V226.273H447.928Z" fill="#667085"/>
    <path d="M497.263 235H496.155L499.36 226.273H500.45L503.655 235H502.547L499.939 227.653H499.871L497.263 235ZM497.672 231.591H502.138V232.528H497.672V231.591ZM509.003 232.324V228.455H510.009V235H509.003V233.892H508.935C508.781 234.224 508.543 234.507 508.219 234.74C507.895 234.97 507.486 235.085 506.992 235.085C506.583 235.085 506.219 234.996 505.901 234.817C505.583 234.635 505.333 234.362 505.151 233.999C504.969 233.632 504.878 233.17 504.878 232.614V228.455H505.884V232.545C505.884 233.023 506.017 233.403 506.284 233.688C506.554 233.972 506.898 234.114 507.316 234.114C507.566 234.114 507.82 234.05 508.078 233.922C508.34 233.794 508.558 233.598 508.735 233.334C508.914 233.07 509.003 232.733 509.003 232.324ZM514.493 237.591C514.007 237.591 513.589 237.528 513.24 237.403C512.89 237.281 512.599 237.119 512.366 236.918C512.136 236.719 511.953 236.506 511.817 236.278L512.618 235.716C512.709 235.835 512.824 235.972 512.963 236.125C513.102 236.281 513.292 236.416 513.534 236.53C513.778 236.646 514.098 236.705 514.493 236.705C515.021 236.705 515.457 236.577 515.801 236.321C516.145 236.065 516.317 235.665 516.317 235.119V233.79H516.231C516.158 233.909 516.052 234.057 515.916 234.233C515.783 234.406 515.589 234.561 515.336 234.697C515.086 234.831 514.748 234.898 514.322 234.898C513.794 234.898 513.319 234.773 512.899 234.523C512.481 234.273 512.15 233.909 511.906 233.432C511.665 232.955 511.544 232.375 511.544 231.693C511.544 231.023 511.662 230.439 511.898 229.942C512.133 229.442 512.461 229.055 512.882 228.783C513.302 228.507 513.788 228.369 514.339 228.369C514.765 228.369 515.104 228.44 515.354 228.582C515.606 228.722 515.8 228.881 515.933 229.06C516.069 229.236 516.175 229.381 516.248 229.494H516.351V228.455H517.322V235.188C517.322 235.75 517.194 236.207 516.939 236.56C516.686 236.915 516.345 237.175 515.916 237.339C515.49 237.507 515.015 237.591 514.493 237.591ZM514.459 233.994C514.862 233.994 515.203 233.902 515.481 233.717C515.76 233.533 515.971 233.267 516.116 232.92C516.261 232.574 516.334 232.159 516.334 231.676C516.334 231.205 516.263 230.788 516.121 230.428C515.979 230.067 515.768 229.784 515.49 229.58C515.211 229.375 514.868 229.273 514.459 229.273C514.033 229.273 513.677 229.381 513.393 229.597C513.112 229.812 512.9 230.102 512.758 230.466C512.619 230.83 512.55 231.233 512.55 231.676C512.55 232.131 512.621 232.533 512.763 232.882C512.908 233.229 513.121 233.501 513.402 233.7C513.686 233.896 514.038 233.994 514.459 233.994Z" fill="#667085"/>
    <path d="M570.764 228.455C570.713 228.023 570.506 227.688 570.142 227.449C569.778 227.21 569.332 227.091 568.804 227.091C568.418 227.091 568.079 227.153 567.79 227.278C567.503 227.403 567.278 227.575 567.116 227.794C566.957 228.013 566.878 228.261 566.878 228.54C566.878 228.773 566.933 228.973 567.044 229.141C567.158 229.305 567.302 229.443 567.479 229.554C567.655 229.662 567.839 229.751 568.033 229.822C568.226 229.891 568.403 229.946 568.565 229.989L569.452 230.227C569.679 230.287 569.932 230.369 570.21 230.474C570.491 230.58 570.76 230.723 571.016 230.905C571.274 231.084 571.487 231.314 571.655 231.595C571.822 231.876 571.906 232.222 571.906 232.631C571.906 233.102 571.783 233.528 571.535 233.909C571.291 234.29 570.933 234.592 570.462 234.817C569.993 235.041 569.423 235.153 568.753 235.153C568.128 235.153 567.587 235.053 567.129 234.851C566.675 234.649 566.317 234.368 566.055 234.007C565.797 233.646 565.65 233.227 565.616 232.75H566.707C566.736 233.08 566.847 233.352 567.04 233.568C567.236 233.781 567.483 233.94 567.781 234.045C568.082 234.148 568.406 234.199 568.753 234.199C569.156 234.199 569.518 234.134 569.839 234.003C570.16 233.869 570.415 233.685 570.602 233.449C570.79 233.21 570.883 232.932 570.883 232.614C570.883 232.324 570.802 232.088 570.641 231.906C570.479 231.724 570.266 231.577 570.001 231.463C569.737 231.349 569.452 231.25 569.145 231.165L568.071 230.858C567.389 230.662 566.849 230.382 566.452 230.018C566.054 229.655 565.855 229.179 565.855 228.591C565.855 228.102 565.987 227.676 566.251 227.312C566.518 226.946 566.876 226.662 567.325 226.46C567.777 226.256 568.281 226.153 568.838 226.153C569.4 226.153 569.9 226.254 570.338 226.456C570.775 226.655 571.122 226.928 571.378 227.274C571.636 227.621 571.773 228.014 571.787 228.455H570.764ZM576.252 235.136C575.621 235.136 575.077 234.997 574.62 234.719C574.165 234.438 573.814 234.045 573.567 233.543C573.323 233.037 573.201 232.449 573.201 231.778C573.201 231.108 573.323 230.517 573.567 230.006C573.814 229.491 574.158 229.091 574.598 228.804C575.041 228.514 575.559 228.369 576.149 228.369C576.49 228.369 576.827 228.426 577.159 228.54C577.492 228.653 577.794 228.838 578.067 229.094C578.34 229.347 578.557 229.682 578.719 230.099C578.881 230.517 578.962 231.031 578.962 231.642V232.068H573.916V231.199H577.939C577.939 230.83 577.865 230.5 577.718 230.21C577.573 229.92 577.365 229.692 577.095 229.524C576.828 229.357 576.513 229.273 576.149 229.273C575.749 229.273 575.402 229.372 575.11 229.571C574.82 229.767 574.597 230.023 574.441 230.338C574.284 230.653 574.206 230.991 574.206 231.352V231.932C574.206 232.426 574.291 232.845 574.462 233.189C574.635 233.53 574.875 233.79 575.182 233.969C575.489 234.145 575.845 234.233 576.252 234.233C576.516 234.233 576.755 234.196 576.968 234.122C577.184 234.045 577.37 233.932 577.526 233.781C577.682 233.628 577.803 233.437 577.888 233.21L578.86 233.483C578.757 233.812 578.585 234.102 578.344 234.352C578.103 234.599 577.804 234.793 577.449 234.932C577.094 235.068 576.695 235.136 576.252 235.136ZM580.492 237.455V228.455H581.463V229.494H581.583C581.657 229.381 581.759 229.236 581.889 229.06C582.023 228.881 582.213 228.722 582.46 228.582C582.71 228.44 583.049 228.369 583.475 228.369C584.026 228.369 584.512 228.507 584.932 228.783C585.353 229.058 585.681 229.449 585.916 229.955C586.152 230.46 586.27 231.057 586.27 231.744C586.27 232.438 586.152 233.038 585.916 233.547C585.681 234.053 585.354 234.445 584.936 234.723C584.519 234.999 584.037 235.136 583.492 235.136C583.071 235.136 582.735 235.067 582.482 234.928C582.229 234.786 582.034 234.625 581.898 234.446C581.762 234.264 581.657 234.114 581.583 233.994H581.497V237.455H580.492ZM581.48 231.727C581.48 232.222 581.553 232.658 581.698 233.036C581.843 233.411 582.054 233.705 582.333 233.918C582.611 234.128 582.952 234.233 583.355 234.233C583.776 234.233 584.127 234.122 584.408 233.901C584.692 233.676 584.905 233.375 585.047 232.997C585.192 232.616 585.264 232.193 585.264 231.727C585.264 231.267 585.193 230.852 585.051 230.483C584.912 230.111 584.701 229.817 584.416 229.601C584.135 229.382 583.782 229.273 583.355 229.273C582.946 229.273 582.603 229.376 582.324 229.584C582.046 229.788 581.835 230.075 581.693 230.445C581.551 230.811 581.48 231.239 581.48 231.727Z" fill="#667085"/>
    <path d="M642.092 230.636C642.092 231.557 641.925 232.352 641.593 233.023C641.261 233.693 640.805 234.21 640.225 234.574C639.646 234.938 638.984 235.119 638.239 235.119C637.495 235.119 636.833 234.938 636.254 234.574C635.674 234.21 635.218 233.693 634.886 233.023C634.553 232.352 634.387 231.557 634.387 230.636C634.387 229.716 634.553 228.92 634.886 228.25C635.218 227.58 635.674 227.062 636.254 226.699C636.833 226.335 637.495 226.153 638.239 226.153C638.984 226.153 639.646 226.335 640.225 226.699C640.805 227.062 641.261 227.58 641.593 228.25C641.925 228.92 642.092 229.716 642.092 230.636ZM641.069 230.636C641.069 229.881 640.942 229.243 640.69 228.723C640.44 228.203 640.1 227.81 639.671 227.543C639.245 227.276 638.768 227.142 638.239 227.142C637.711 227.142 637.232 227.276 636.803 227.543C636.377 227.81 636.038 228.203 635.785 228.723C635.535 229.243 635.41 229.881 635.41 230.636C635.41 231.392 635.535 232.03 635.785 232.55C636.038 233.07 636.377 233.463 636.803 233.73C637.232 233.997 637.711 234.131 638.239 234.131C638.768 234.131 639.245 233.997 639.671 233.73C640.1 233.463 640.44 233.07 640.69 232.55C640.942 232.03 641.069 231.392 641.069 230.636ZM646.391 235.136C645.778 235.136 645.249 234.991 644.806 234.702C644.363 234.412 644.022 234.013 643.783 233.504C643.545 232.996 643.425 232.415 643.425 231.761C643.425 231.097 643.548 230.51 643.792 230.001C644.039 229.49 644.383 229.091 644.823 228.804C645.266 228.514 645.783 228.369 646.374 228.369C646.834 228.369 647.249 228.455 647.619 228.625C647.988 228.795 648.29 229.034 648.526 229.341C648.762 229.648 648.908 230.006 648.965 230.415H647.959C647.883 230.116 647.712 229.852 647.448 229.622C647.187 229.389 646.834 229.273 646.391 229.273C645.999 229.273 645.656 229.375 645.36 229.58C645.067 229.781 644.839 230.067 644.674 230.436C644.512 230.803 644.431 231.233 644.431 231.727C644.431 232.233 644.511 232.673 644.67 233.048C644.832 233.423 645.059 233.714 645.352 233.922C645.647 234.129 645.994 234.233 646.391 234.233C646.653 234.233 646.89 234.188 647.103 234.097C647.316 234.006 647.496 233.875 647.644 233.705C647.792 233.534 647.897 233.33 647.959 233.091H648.965C648.908 233.477 648.768 233.825 648.543 234.135C648.322 234.442 648.028 234.686 647.661 234.868C647.298 235.047 646.874 235.136 646.391 235.136ZM653.282 228.455V229.307H649.89V228.455H653.282ZM650.879 226.886H651.884V233.125C651.884 233.409 651.925 233.622 652.008 233.764C652.093 233.903 652.201 233.997 652.332 234.045C652.465 234.091 652.606 234.114 652.754 234.114C652.864 234.114 652.955 234.108 653.026 234.097C653.097 234.082 653.154 234.071 653.197 234.062L653.401 234.966C653.333 234.991 653.238 235.017 653.116 235.043C652.994 235.071 652.839 235.085 652.651 235.085C652.367 235.085 652.089 235.024 651.816 234.902C651.546 234.78 651.322 234.594 651.143 234.344C650.967 234.094 650.879 233.778 650.879 233.398V226.886Z" fill="#667085"/>
    <path d="M708.793 226.273V235H707.771L703.015 228.148H702.93V235H701.873V226.273H702.896L707.668 233.142H707.754V226.273H708.793ZM713.431 235.136C712.84 235.136 712.321 234.996 711.875 234.714C711.432 234.433 711.086 234.04 710.836 233.534C710.589 233.028 710.465 232.437 710.465 231.761C710.465 231.08 710.589 230.484 710.836 229.976C711.086 229.467 711.432 229.072 711.875 228.791C712.321 228.51 712.84 228.369 713.431 228.369C714.022 228.369 714.539 228.51 714.982 228.791C715.428 229.072 715.775 229.467 716.022 229.976C716.272 230.484 716.397 231.08 716.397 231.761C716.397 232.437 716.272 233.028 716.022 233.534C715.775 234.04 715.428 234.433 714.982 234.714C714.539 234.996 714.022 235.136 713.431 235.136ZM713.431 234.233C713.88 234.233 714.249 234.118 714.539 233.888C714.829 233.658 715.043 233.355 715.182 232.98C715.321 232.605 715.391 232.199 715.391 231.761C715.391 231.324 715.321 230.916 715.182 230.538C715.043 230.161 714.829 229.855 714.539 229.622C714.249 229.389 713.88 229.273 713.431 229.273C712.982 229.273 712.613 229.389 712.323 229.622C712.033 229.855 711.819 230.161 711.679 230.538C711.54 230.916 711.471 231.324 711.471 231.761C711.471 232.199 711.54 232.605 711.679 232.98C711.819 233.355 712.033 233.658 712.323 233.888C712.613 234.118 712.982 234.233 713.431 234.233ZM723.05 228.455L720.629 235H719.607L717.186 228.455H718.277L720.084 233.67H720.152L721.959 228.455H723.05Z" fill="#667085"/>
    <path d="M774.094 235H771.401V226.273H774.213C775.06 226.273 775.784 226.447 776.386 226.797C776.989 227.143 777.45 227.642 777.771 228.293C778.092 228.94 778.253 229.716 778.253 230.619C778.253 231.528 778.091 232.311 777.767 232.967C777.443 233.621 776.972 234.124 776.352 234.476C775.733 234.825 774.98 235 774.094 235ZM772.457 234.062H774.026C774.747 234.062 775.345 233.923 775.82 233.645C776.294 233.366 776.648 232.97 776.881 232.456C777.114 231.942 777.23 231.33 777.23 230.619C777.23 229.915 777.115 229.308 776.885 228.8C776.655 228.288 776.311 227.896 775.854 227.624C775.396 227.348 774.827 227.21 774.145 227.21H772.457V234.062ZM782.634 235.136C782.003 235.136 781.459 234.997 781.001 234.719C780.547 234.438 780.196 234.045 779.949 233.543C779.705 233.037 779.582 232.449 779.582 231.778C779.582 231.108 779.705 230.517 779.949 230.006C780.196 229.491 780.54 229.091 780.98 228.804C781.423 228.514 781.94 228.369 782.531 228.369C782.872 228.369 783.209 228.426 783.541 228.54C783.874 228.653 784.176 228.838 784.449 229.094C784.722 229.347 784.939 229.682 785.101 230.099C785.263 230.517 785.344 231.031 785.344 231.642V232.068H780.298V231.199H784.321C784.321 230.83 784.247 230.5 784.099 230.21C783.955 229.92 783.747 229.692 783.477 229.524C783.21 229.357 782.895 229.273 782.531 229.273C782.131 229.273 781.784 229.372 781.491 229.571C781.202 229.767 780.979 230.023 780.822 230.338C780.666 230.653 780.588 230.991 780.588 231.352V231.932C780.588 232.426 780.673 232.845 780.844 233.189C781.017 233.53 781.257 233.79 781.564 233.969C781.871 234.145 782.227 234.233 782.634 234.233C782.898 234.233 783.136 234.196 783.349 234.122C783.565 234.045 783.751 233.932 783.908 233.781C784.064 233.628 784.185 233.437 784.27 233.21L785.241 233.483C785.139 233.812 784.967 234.102 784.726 234.352C784.484 234.599 784.186 234.793 783.831 234.932C783.476 235.068 783.077 235.136 782.634 235.136ZM789.533 235.136C788.919 235.136 788.391 234.991 787.947 234.702C787.504 234.412 787.163 234.013 786.925 233.504C786.686 232.996 786.567 232.415 786.567 231.761C786.567 231.097 786.689 230.51 786.933 230.001C787.18 229.49 787.524 229.091 787.964 228.804C788.408 228.514 788.925 228.369 789.516 228.369C789.976 228.369 790.391 228.455 790.76 228.625C791.129 228.795 791.432 229.034 791.668 229.341C791.903 229.648 792.05 230.006 792.107 230.415H791.101C791.024 230.116 790.854 229.852 790.589 229.622C790.328 229.389 789.976 229.273 789.533 229.273C789.141 229.273 788.797 229.375 788.501 229.58C788.209 229.781 787.98 230.067 787.815 230.436C787.653 230.803 787.572 231.233 787.572 231.727C787.572 232.233 787.652 232.673 787.811 233.048C787.973 233.423 788.2 233.714 788.493 233.922C788.788 234.129 789.135 234.233 789.533 234.233C789.794 234.233 790.031 234.188 790.244 234.097C790.457 234.006 790.638 233.875 790.786 233.705C790.933 233.534 791.038 233.33 791.101 233.091H792.107C792.05 233.477 791.909 233.825 791.685 234.135C791.463 234.442 791.169 234.686 790.803 234.868C790.439 235.047 790.016 235.136 789.533 235.136Z" fill="#667085"/>
    <g style="mix-blend-mode:multiply" opacity="0.1">
        <path d="M793.686 43.2676C805.343 43.2676 805.343 28.125 817 28.125V216H1V124.93C13.6285 124.93 12.6572 130.5 24.3143 130.5C35.9714 130.5 35.9714 114.681 47.6286 114.681C59.2857 114.681 57.3428 119.549 70.9429 119.549C84.5428 119.549 80.6572 128.661 94.2571 128.661C107.857 128.661 104.943 125.2 117.571 125.2C130.2 125.2 127.771 108.705 140.886 108.705C154 108.705 150.6 114.086 164.2 114.086C177.8 114.086 175.371 121.496 187.514 121.496C199.657 121.496 197.714 96.8888 210.829 96.8888C223.943 96.8888 222.486 105.406 234.143 105.406C245.8 105.406 243.857 93.4817 257.457 93.4817C271.057 93.4817 268.143 101.107 280.771 101.107C293.4 101.107 291.457 69.9295 304.086 69.9295C316.714 69.9295 314.286 78.6095 327.4 78.6095C340.514 78.6095 337.114 84.342 350.714 84.342C364.314 84.342 360.914 69.4698 374.029 69.4698C387.143 69.4698 383.743 76.7707 397.343 76.7707C410.943 76.7707 408.514 64.7377 420.657 64.7377C432.8 64.7377 431.343 44.6197 443.971 44.6197C456.6 44.6197 454.657 78.285 467.286 78.285C479.914 78.285 478.457 54.7057 490.6 54.7057C502.743 54.7057 500.314 65.0352 513.914 65.0352C527.514 65.0352 524.6 74.31 537.229 74.31C549.857 74.31 548.4 58.9511 560.543 58.9511C572.686 58.9511 571.714 73.5529 583.857 73.5529C596 73.5529 594.543 67.0632 607.171 67.0632C619.8 67.0632 617.857 53.6782 630.486 53.6782C643.114 53.6782 641.171 59.0322 653.8 59.0322C666.429 59.0322 665.457 39.482 677.114 39.482C688.771 39.482 686.829 66.279 700.429 66.279C714.029 66.279 710.629 48.0808 723.743 48.0808C736.857 48.0808 734.914 55.571 747.057 55.571C759.2 55.571 758.229 36.9131 770.371 36.9131C782.514 36.9131 782.029 43.2676 793.686 43.2676Z" fill="url(#paint0_linear_209_26178)"/>
    </g>
    <path d="M817 21C805.343 21 805.343 41.7579 793.686 41.7579C782.029 41.7579 782.514 44.5031 770.371 44.5031C758.229 44.5031 759.2 58.6237 747.057 58.6237C734.914 58.6237 736.857 48.3559 723.743 48.3559C710.629 48.3559 714.029 73.3024 700.429 73.3024C686.829 73.3024 688.771 53.7527 677.114 53.7527C665.457 53.7527 666.429 63.3683 653.8 63.3683C641.171 63.3683 643.114 56.0289 630.486 56.0289C617.857 56.0289 619.8 74.3774 607.171 74.3774C594.543 74.3774 596 83.2736 583.857 83.2736C571.714 83.2736 572.686 63.2571 560.543 63.2571C548.4 63.2571 549.857 38.4868 537.229 38.4868C524.6 38.4868 527.514 71.5973 513.914 71.5973C500.314 71.5973 502.743 57.4375 490.6 57.4375C478.457 57.4375 476.429 65.0769 467.286 66.8481C458.192 68.6098 456.6 66.5236 443.971 66.5236C431.343 66.5236 432.8 71.1896 420.657 71.1896C408.514 71.1896 410.943 87.6847 397.343 87.6847C383.743 87.6847 387.143 77.6764 374.029 77.6764C360.914 77.6764 364.314 98.0636 350.714 98.0636C337.114 98.0636 340.514 90.2053 327.4 90.2053C314.286 90.2053 316.714 78.3066 304.086 78.3066C291.457 78.3066 293.4 98.1332 280.771 98.1332C268.143 98.1332 271.057 110.592 257.457 110.592C243.857 110.592 242.812 114.439 234.143 126.939C224.044 141.502 223.943 184 210.829 184C197.714 184 197.009 157.867 187.514 148.995C178.609 140.673 177.8 138.838 164.2 138.838C150.6 138.838 154 131.462 140.886 131.462C127.771 131.462 130.2 154.073 117.571 154.073C104.943 154.073 107.857 158.817 94.2571 158.817C80.6571 158.817 84.5428 146.326 70.9428 146.326C57.3428 146.326 59.2857 139.653 47.6286 139.653C35.9714 139.653 35.9714 161.338 24.3143 161.338C12.6571 161.338 13.6286 153.702 0.999991 153.702" stroke="#FF9500" stroke-width="2" stroke-linecap="round" stroke-linejoin="round"/>
    <defs>
        <linearGradient id="paint0_linear_209_26178" x1="409" y1="28.125" x2="409" y2="207.636" gradientUnits="userSpaceOnUse">
            <stop stop-color="#7F56D9"/>
            <stop offset="1" stop-color="#7F56D9" stop-opacity="0"/>
        </linearGradient>
    </defs>
</svg>
